# xmcd
#
# Track frame offsets:
#	150
#	18125
#	39259
#	56584
#	77787
#	102079
#	119062
#	137792
#	159832
#	183982
#	206412
#	230710
#
# Disc length: 3425 seconds
#
# Revision: 0
# Processed by: cddbd v1.4PL0 Copyright (c) Steve Scherf et al.
# Submitted via: dBpowerAMP V4.0
#
DISCID=960d5f0c
DTITLE=Kenny Neal - One step closer
DYEAR=2001
DGENRE=Blues
TTITLE0=No more one more chance
TTITLE1=Remedy
TTITLE2=Lovers will
TTITLE3=Walk out in the rain
TTITLE4=One step closer to the Blues
TTITLE5=Hidden in plain sight
TTITLE6=High on a hilltop
TTITLE7=Back door tipper
TTITLE8=Congo square
TTITLE9=You care
TTITLE10=Whiskey tears
TTITLE11=She ain't happy unless she's sad
EXTD=
EXTT0=
EXTT1=
EXTT2=
EXTT3=
EXTT4=
EXTT5=
EXTT6=
EXTT7=
EXTT8=
EXTT9=
EXTT10=
EXTT11=
PLAYORDER=
